<?xml version="1.0" encoding="utf-8"?>
<svg xmlns="http://www.w3.org/2000/svg" xmlns:svg="http://www.w3.org/2000/svg" version="1.1" viewBox="0 0 1400 420">
	<title>The titlepage for the Standard Ebooks edition of Undine, by Friedrich de la Motte Fouqué</title>
	<g aria-label="UNDINE">
		<path d="m 564.20468,52.807016 h -17.59065 v 44.63158 c 0,12.912284 -3.92982,16.654974 -12.53801,16.654974 -8.60819,0 -12.53801,-3.74269 -12.53801,-16.654974 v -44.63158 h -17.59064 v 49.777774 c 0,19.08772 10.47953,28.81872 30.12865,28.81872 19.64912,0 30.12866,-9.731 30.12866,-28.81872 z"/>
		<path d="m 597.10088,82.093566 h 0.18713 L 627.97807,130 h 17.59065 V 52.807016 h -17.59065 v 47.906434 h -0.18713 L 597.10088,52.807016 H 579.51023 V 130 h 17.59065 z"/>
		<path d="M 661.81288,52.807016 V 130 h 22.36257 c 21.23977,0 38.92398,-16.09357 38.92398,-38.643276 0,-22.45614 -17.77778,-38.549708 -38.92398,-38.549708 z M 679.40352,114.2807 V 68.526315 h 2.71345 c 13.09942,0 21.98831,10.011696 21.98831,22.923977 -0.0936,12.912278 -8.98246,22.830408 -21.98831,22.830408 z"/>
		<path d="M 753.48247,52.807016 H 735.89183 V 130 h 17.59064 z"/>
		<path d="m 787.35674,82.093566 h 0.18713 L 818.23393,130 h 17.59065 V 52.807016 H 818.23393 V 100.71345 H 818.0468 L 787.35674,52.807016 H 769.76609 V 130 h 17.59065 z"/>
		<path d="M 896.23248,52.807016 H 852.06874 V 130 h 44.16374 v -15.4386 h -26.5731 V 99.029239 h 25.45029 V 83.590642 H 869.65938 V 68.245613 h 26.5731 z"/>
	</g>
	<g aria-label="FRIEDRICH">
		<path d="M 527.51151,232.10526 H 494.03783 V 290 h 13.19298 v -23.22807 h 18.73684 v -11.57895 h -18.73684 v -11.50877 h 20.2807 z"/>
		<path d="M 538.78564,232.10526 V 290 h 13.19298 V 267.12281 L 569.66283,290 h 16.77193 l -19.92982,-23.92982 c 7.08771,-2.24562 11.85964,-8.07018 11.85964,-16.77193 0,-11.36842 -8.14035,-17.19299 -18.87719,-17.19299 z m 13.19298,25.68421 v -15.15789 h 1.54386 c 4.98246,0 10.94737,0.35088 10.94737,7.57895 0,7.22807 -5.96491,7.57894 -10.94737,7.57894 z"/>
		<path d="M 607.28015,232.10526 H 594.08717 V 290 h 13.19298 z"/>
		<path d="M 653.86568,232.10526 H 620.74287 V 290 h 33.12281 v -11.57895 h -19.92983 v -11.64912 h 19.08772 v -11.57895 h -19.08772 v -11.50877 h 19.92983 z"/>
		<path d="M 666.45011,232.10526 V 290 h 16.77193 c 15.92982,0 29.19298,-12.07018 29.19298,-28.98246 0,-16.8421 -13.33333,-28.91228 -29.19298,-28.91228 z m 13.19298,46.10527 v -34.31579 h 2.03509 c 9.82456,0 16.49123,7.50877 16.49123,17.19298 -0.0702,9.68421 -6.73685,17.12281 -16.49123,17.12281 z"/>
		<path d="M 723.25933,232.10526 V 290 h 13.19298 V 267.12281 L 754.13652,290 h 16.77193 l -19.92982,-23.92982 c 7.08771,-2.24562 11.85964,-8.07018 11.85964,-16.77193 0,-11.36842 -8.14035,-17.19299 -18.87719,-17.19299 z m 13.19298,25.68421 v -15.15789 h 1.54386 c 4.98246,0 10.94737,0.35088 10.94737,7.57895 0,7.22807 -5.96491,7.57894 -10.94737,7.57894 z"/>
		<path d="M 791.75382,232.10526 H 778.56084 V 290 h 13.19298 z"/>
		<path d="m 833.8306,278.07018 c -13.26316,0 -19.08772,-9.26316 -19.08772,-17.05264 0,-7.71929 5.82456,-16.98245 19.08772,-16.98245 6.73684,0 11.36842,3.57895 11.36842,3.57895 l 5.61403,-11.22807 c 0,0 -6.45614,-5.33334 -19.01754,-5.33334 -16.42105,0 -31.36842,13.47369 -31.36842,30.10527 0,16.5614 15.01754,29.89473 31.36842,29.89473 12.5614,0 19.01754,-5.33333 19.01754,-5.33333 l -5.61403,-11.22807 c 0,0 -4.63158,3.57895 -11.36842,3.57895 z"/>
		<path d="m 874.12226,266.77193 h 18.66667 V 290 h 13.19298 v -57.89474 h -13.19298 v 23.08772 H 874.12226 V 232.10526 H 860.92928 V 290 h 13.19298 z"/>
	</g>
	<g aria-label="DE LA MOTTE FOUQUÉ">
		<path d="M 259.70943,312.10526 V 370 h 16.77193 c 15.92983,0 29.19299,-12.07018 29.19299,-28.98246 0,-16.8421 -13.33334,-28.91228 -29.19299,-28.91228 z m 13.19299,46.10527 v -34.31579 h 2.03508 c 9.82456,0 16.49123,7.50877 16.49123,17.19298 -0.0702,9.68421 -6.73684,17.12281 -16.49123,17.12281 z"/>
		<path d="m 349.64145,312.10526 h -33.1228 V 370 h 33.1228 v -11.57895 h -19.92982 v -11.64912 h 19.08772 v -11.57895 h -19.08772 v -11.50877 h 19.92982 z"/>
		<path d="M 399.60746,312.10526 H 386.41448 V 370 h 33.12281 v -11.57895 h -19.92983 z"/>
		<path d="M 461.52522,312.10526 H 449.31469 L 425.94627,370 h 14.17544 l 4.2807,-11.57895 H 466.4375 L 470.7182,370 h 14.17544 z m 0.42105,34.73685 H 448.89364 L 455.34978,330 h 0.14035 z"/>
		<path d="m 564.13158,370 h 13.19298 l -5.19298,-57.89474 h -14.03509 l -12.8421,33.40351 -12.84211,-33.40351 H 518.3772 L 513.18421,370 h 13.19299 l 2.73684,-34.31579 h 0.35088 l 11.85964,33.96491 h 7.85965 l 11.85965,-33.96491 h 0.35088 z"/>
		<path d="m 585.01315,341.01754 c 0,16.91228 12.07018,30.03509 29.19298,30.03509 16.63158,0 29.12281,-13.12281 29.12281,-30.03509 0,-16.91228 -13.05263,-29.96491 -29.12281,-29.96491 -15.92982,0 -29.19298,13.05263 -29.19298,29.96491 z m 14.24561,0 c 0,-8.63157 4.77193,-17.26315 14.94737,-17.26315 10.24562,0 14.87719,8.63158 14.87719,17.26315 0,8.63158 -4.35087,17.26316 -14.87719,17.26316 -10.80702,0 -14.94737,-8.63158 -14.94737,-17.26316 z"/>
		<path d="M 648.30811,323.68421 H 662.0625 V 370 h 13.19298 v -46.31579 h 13.75439 v -11.57895 h -40.70176 z"/>
		<path d="m 696.07127,323.68421 h 13.75438 V 370 h 13.19298 v -46.31579 h 13.75439 v -11.57895 h -40.70175 z"/>
		<path d="M 779.64694,312.10526 H 746.52413 V 370 h 33.12281 v -11.57895 h -19.92983 v -11.64912 h 19.08772 v -11.57895 h -19.08772 v -11.50877 h 19.92983 z"/>
		<path d="M 849.89363,312.10526 H 816.41994 V 370 h 13.19299 v -23.22807 h 18.73684 v -11.57895 h -18.73684 v -11.50877 h 20.2807 z"/>
		<path d="m 858.57126,341.01754 c 0,16.91228 12.07017,30.03509 29.19298,30.03509 16.63158,0 29.1228,-13.12281 29.1228,-30.03509 0,-16.91228 -13.05263,-29.96491 -29.1228,-29.96491 -15.92983,0 -29.19298,13.05263 -29.19298,29.96491 z m 14.24561,0 c 0,-8.63157 4.77193,-17.26315 14.94737,-17.26315 10.24561,0 14.87719,8.63158 14.87719,17.26315 0,8.63158 -4.35088,17.26316 -14.87719,17.26316 -10.80702,0 -14.94737,-8.63158 -14.94737,-17.26316 z"/>
		<path d="m 972.19956,312.10526 h -13.19298 v 33.47369 c 0,9.68421 -2.94737,12.49123 -9.40351,12.49123 -6.45614,0 -9.40351,-2.80702 -9.40351,-12.49123 v -33.47369 h -13.19298 v 37.33334 c 0,14.31579 7.85965,21.61403 22.59649,21.61403 14.73684,0 22.59649,-7.29824 22.59649,-21.61403 z"/>
		<path d="m 999.034,382.14035 c 0,0 3.0877,-3.22807 8.5614,-3.22807 8.9123,0 12.4912,5.47368 21.1228,5.47368 9.193,0 12.9123,-7.85964 12.9123,-7.85964 l -4.1404,-8.91228 c 0,0 -2.7368,3.78947 -8.7017,3.78947 -3.4386,0 -7.6491,-1.33333 -8.9825,-1.33333 v -0.28071 c 12,-3.64912 20.1404,-14.94736 20.1404,-28.77193 0,-16.91228 -12.7018,-29.96491 -28.772,-29.96491 -15.92978,0 -28.84206,13.05263 -28.84206,29.96491 0,14.8772 9.05263,26.80702 22.80706,29.47369 v 0.2807 c -4.2106,0 -9.2632,6.59649 -9.2632,6.59649 z m -2.45614,-41.12281 c 0,-8.63157 4.42104,-16.70175 14.59644,-16.70175 10.2457,0 14.5264,8.07018 14.5264,16.70175 0,8.63158 -4,16.70176 -14.5264,16.70176 -10.807,0 -14.59644,-8.07018 -14.59644,-16.70176 z"/>
		<path d="m 1095.2752,312.10526 h -13.1929 v 33.47369 c 0,9.68421 -2.9474,12.49123 -9.4035,12.49123 -6.4562,0 -9.4036,-2.80702 -9.4036,-12.49123 v -33.47369 h -13.1929 v 37.33334 c 0,14.31579 7.8596,21.61403 22.5965,21.61403 14.7368,0 22.5964,-7.29824 22.5964,-21.61403 z"/>
		<path d="m 1115.864,301.50877 3.9298,5.40351 16.7018,-9.68421 -6.386,-8.07017 z m 25.2632,10.59649 h -33.1228 V 370 h 33.1228 v -11.57895 h -19.9299 v -11.64912 h 19.0878 v -11.57895 h -19.0878 v -11.50877 h 19.9299 z"/>
	</g>
</svg>
